<svg width="14" height="14" viewBox="0 0 14 14" fill="none" xmlns="http://www.w3.org/2000/svg">
<g clip-path="url(#clip0)">
<path d="M12.2119 3.40134L8.93069 0.120176C8.8541 0.0435586 8.74956 0 8.64062 0H2.89844C2.21996 0 1.66797 0.551988 1.66797 1.23047V12.7695C1.66797 13.448 2.21996 14 2.89844 14H11.1016C11.78 14 12.332 13.448 12.332 12.7695V3.69141C12.332 3.57957 12.2851 3.47454 12.2119 3.40134ZM9.05078 1.40036L10.9317 3.28125H9.46094C9.23478 3.28125 9.05078 3.09725 9.05078 2.87109V1.40036ZM11.1016 13.1797H2.89844C2.67228 13.1797 2.48828 12.9957 2.48828 12.7695V1.23047C2.48828 1.00431 2.67228 0.820312 2.89844 0.820312H8.23047V2.87109C8.23047 3.54957 8.78246 4.10156 9.46094 4.10156H11.5117V12.7695C11.5117 12.9957 11.3277 13.1797 11.1016 13.1797Z" fill="#727272"/>
<path d="M9.46094 5.79688H4.53906C4.31255 5.79688 4.12891 5.98052 4.12891 6.20703C4.12891 6.43355 4.31255 6.61719 4.53906 6.61719H9.46094C9.68745 6.61719 9.87109 6.43355 9.87109 6.20703C9.87109 5.98052 9.68745 5.79688 9.46094 5.79688Z" fill="#727272"/>
<path d="M9.46094 7.4375H4.53906C4.31255 7.4375 4.12891 7.62114 4.12891 7.84766C4.12891 8.07417 4.31255 8.25781 4.53906 8.25781H9.46094C9.68745 8.25781 9.87109 8.07417 9.87109 7.84766C9.87109 7.62114 9.68745 7.4375 9.46094 7.4375Z" fill="#727272"/>
<path d="M9.46094 9.07812H4.53906C4.31255 9.07812 4.12891 9.26177 4.12891 9.48828C4.12891 9.7148 4.31255 9.89844 4.53906 9.89844H9.46094C9.68745 9.89844 9.87109 9.7148 9.87109 9.48828C9.87109 9.26177 9.68745 9.07812 9.46094 9.07812Z" fill="#727272"/>
<path d="M7.82031 10.7188H4.53906C4.31255 10.7188 4.12891 10.9024 4.12891 11.1289C4.12891 11.3554 4.31255 11.5391 4.53906 11.5391H7.82031C8.04683 11.5391 8.23047 11.3554 8.23047 11.1289C8.23047 10.9024 8.04683 10.7188 7.82031 10.7188Z" fill="#727272"/>
</g>
<defs>
<clipPath id="clip0">
<rect width="14" height="14" fill="white"/>
</clipPath>
</defs>
</svg>
