<svg width="14" height="14" viewBox="0 0 14 14" fill="none" xmlns="http://www.w3.org/2000/svg">
<g clip-path="url(#clip0)">
<path d="M2.66843 12.3991C3.86656 13.3164 5.29171 13.8011 6.78957 13.8011H6.78967C7.09148 13.8011 7.39726 13.7808 7.69843 13.7408C9.4994 13.5016 11.0995 12.5754 12.2038 11.1327C12.8758 10.255 13.3275 9.21839 13.5102 8.13486C13.542 7.94653 13.415 7.76807 13.2267 7.73629L12.3173 7.58292C12.2267 7.5677 12.134 7.58896 12.0593 7.64213C11.9845 7.6953 11.934 7.77595 11.9187 7.86643C11.7795 8.69168 11.435 9.48189 10.9223 10.1516C10.08 11.2519 8.85962 11.9584 7.48585 12.1408C7.25555 12.1714 7.02189 12.1869 6.79146 12.1869C5.64983 12.1869 4.56339 11.8171 3.64941 11.1175C2.54914 10.2752 1.84267 9.05483 1.66025 7.68114C1.47777 6.30755 1.8412 4.94507 2.68347 3.84475C3.67219 2.55324 5.17596 1.81256 6.80922 1.81256C7.95681 1.81256 9.045 2.18129 9.95625 2.8788C10.2583 3.11002 10.5294 3.3683 10.7691 3.65139L9.06589 3.35073C8.97569 3.33473 8.88268 3.35539 8.80747 3.40796C8.73225 3.46058 8.68116 3.54086 8.66521 3.6312L8.50487 4.53941C8.47167 4.72751 8.59723 4.90689 8.78528 4.94009L12.8723 5.66163C12.8924 5.66518 12.9124 5.66689 12.9325 5.66689C13.0029 5.66689 13.0723 5.64536 13.1308 5.60441C13.206 5.55179 13.2571 5.47151 13.273 5.38117L13.9945 1.2941C14.0278 1.106 13.9022 0.926621 13.7141 0.893373L12.8059 0.733035C12.6175 0.699695 12.4384 0.825401 12.4052 1.0135L12.1016 2.73354C11.7609 2.31105 11.3697 1.92826 10.9373 1.59721C9.74228 0.682402 8.31525 0.198853 6.81032 0.198853C4.66959 0.198853 2.69831 1.17015 1.40192 2.86363C0.297631 4.30635 -0.178816 6.09271 0.0603761 7.89368C0.299614 9.69479 1.22586 11.2948 2.66843 12.3991Z" fill="#C48F56"/>
</g>
<defs>
<clipPath id="clip0">
<rect width="14" height="14" fill="white"/>
</clipPath>
</defs>
</svg>
