<svg width="14" height="14" viewBox="0 0 14 14" fill="none" xmlns="http://www.w3.org/2000/svg">
<g clip-path="url(#clip0)">
<path d="M3.1335 13.717C2.98011 13.717 2.8278 13.6692 2.6978 13.5752C2.45565 13.3997 2.34254 13.0981 2.40844 12.807L3.3091 8.83959L0.254639 6.1609C0.0301159 5.9649 -0.055656 5.6545 0.0365247 5.37048C0.128705 5.08699 0.379505 4.88629 0.676449 4.85884L4.71787 4.49193L6.31571 0.752682C6.43352 0.477956 6.70184 0.300537 6.99996 0.300537C7.29808 0.300537 7.5664 0.477956 7.68421 0.752041L9.28205 4.49193L13.3228 4.85884C13.6204 4.88565 13.8712 5.08699 13.9634 5.37048C14.0556 5.65396 13.9703 5.9649 13.7458 6.1609L10.6914 8.83906L11.592 12.8064C11.658 13.0981 11.5448 13.3997 11.3028 13.5747C11.0613 13.7496 10.7392 13.7631 10.4849 13.6102L6.99996 11.5277L3.51504 13.6114C3.39722 13.6814 3.26595 13.717 3.1335 13.717ZM6.99996 10.6305C7.13241 10.6305 7.26358 10.6661 7.3815 10.7361L10.6704 12.7032L9.82039 8.95858C9.75972 8.69208 9.85019 8.41383 10.0561 8.23353L12.9402 5.70416L9.1245 5.35766C8.84977 5.33256 8.6135 5.15984 8.50615 4.90669L6.99996 1.37797L5.49196 4.90722C5.38578 5.15866 5.14951 5.33138 4.87542 5.35648L1.05916 5.70299L3.94315 8.23235C4.14973 8.41319 4.24009 8.6909 4.17889 8.95805L3.3295 12.7025L6.61842 10.7361C6.73624 10.6661 6.86751 10.6305 6.99996 10.6305ZM4.687 4.56424C4.687 4.56424 4.687 4.56488 4.68636 4.56542L4.687 4.56424ZM9.31174 4.56253L9.31238 4.56371C9.31238 4.56307 9.31238 4.56307 9.31174 4.56253Z" fill="#727272"/>
</g>
<defs>
<clipPath id="clip0">
<rect width="14" height="14" fill="white"/>
</clipPath>
</defs>
</svg>
