<svg width="14" height="14" viewBox="0 0 14 14" fill="none" xmlns="http://www.w3.org/2000/svg">
<g clip-path="url(#clip0)">
<path d="M12.5417 12.8332H1.45833C0.6545 12.8332 0 12.1787 0 11.3748V10.2082C0 10.0472 0.130667 9.9165 0.291667 9.9165H0.583333C1.22675 9.9165 1.75 9.39325 1.75 8.74984C1.75 8.10642 1.22675 7.58317 0.583333 7.58317H0.291667C0.130667 7.58317 0 7.4525 0 7.2915V6.12484C0 5.321 0.6545 4.6665 1.45833 4.6665H12.5417C13.3455 4.6665 14 5.321 14 6.12484V7.2915C14 7.4525 13.8693 7.58317 13.7083 7.58317H13.4167C12.7732 7.58317 12.25 8.10642 12.25 8.74984C12.25 9.06134 12.3713 9.35417 12.5918 9.57467C12.8117 9.79517 13.1046 9.9165 13.4161 9.9165H13.7078C13.8687 9.9165 13.9994 10.0472 13.9994 10.2082V11.3748C14 12.1787 13.3455 12.8332 12.5417 12.8332ZM0.583333 10.4998V11.3748C0.583333 11.8573 0.975917 12.2498 1.45833 12.2498H12.5417C13.0241 12.2498 13.4167 11.8573 13.4167 11.3748V10.4998H13.4161C12.9488 10.4998 12.5096 10.3178 12.1794 9.98767C11.8487 9.65692 11.6667 9.21709 11.6667 8.74984C11.6667 7.785 12.4518 6.99984 13.4167 6.99984V6.12484C13.4167 5.64242 13.0241 5.24984 12.5417 5.24984H1.45833C0.975917 5.24984 0.583333 5.64242 0.583333 6.12484V6.99984C1.54817 6.99984 2.33333 7.785 2.33333 8.74984C2.33333 9.71467 1.54817 10.4998 0.583333 10.4998Z" fill="#727272"/>
<path d="M4.95866 5.83317C4.79766 5.83317 4.66699 5.7025 4.66699 5.5415V4.95817C4.66699 4.79717 4.79766 4.6665 4.95866 4.6665C5.11966 4.6665 5.25033 4.79717 5.25033 4.95817V5.5415C5.25033 5.7025 5.11966 5.83317 4.95866 5.83317Z" fill="#727272"/>
<path d="M4.95866 10.769C4.79766 10.769 4.66699 10.6384 4.66699 10.4774V9.49094C4.66699 9.32994 4.79766 9.19928 4.95866 9.19928C5.11966 9.19928 5.25033 9.32936 5.25033 9.49094V10.4779C5.25033 10.6389 5.11966 10.769 4.95866 10.769ZM4.95866 8.30153C4.79766 8.30153 4.66699 8.17086 4.66699 8.00986V7.02287C4.66699 6.86187 4.79766 6.7312 4.95866 6.7312C5.11966 6.7312 5.25033 6.86187 5.25033 7.02287V8.00986C5.25033 8.17086 5.11966 8.30153 4.95866 8.30153Z" fill="#727272"/>
<path d="M4.95866 12.8334C4.79766 12.8334 4.66699 12.7028 4.66699 12.5418V11.9584C4.66699 11.7974 4.79766 11.6667 4.95866 11.6667C5.11966 11.6667 5.25033 11.7974 5.25033 11.9584V12.5418C5.25033 12.7028 5.11966 12.8334 4.95866 12.8334Z" fill="#727272"/>
<path d="M1.45816 5.24986C1.33975 5.24986 1.22833 5.17753 1.18516 5.06028C1.12858 4.90919 1.205 4.74119 1.35608 4.68519L10.6311 1.22194C11.082 1.05278 11.6117 1.30594 11.7657 1.76036L12.8174 4.86428C12.8687 5.01711 12.7871 5.18219 12.6348 5.23411C12.4837 5.28603 12.3169 5.20378 12.265 5.05153L11.2132 1.94761C11.1619 1.79594 10.9857 1.71311 10.8347 1.76794L1.55966 5.23119C1.52641 5.24403 1.492 5.24986 1.45816 5.24986Z" fill="#727272"/>
</g>
<defs>
<clipPath id="clip0">
<rect width="14" height="14" fill="white"/>
</clipPath>
</defs>
</svg>
