<svg width="14" height="14" viewBox="0 0 14 14" fill="none" xmlns="http://www.w3.org/2000/svg">
<path d="M4.19957 4.32051H3.42645L5.5342 10.2786L6.71418 6.90664L5.79933 4.32051H4.98361V3.75278H8.59586V4.32051H7.74997L9.85769 10.2786L10.6153 8.11349C11.6092 5.33953 9.80074 4.47543 9.80074 3.85636C9.80074 3.23728 10.3026 2.73545 10.9216 2.73545C10.9551 2.73545 10.9877 2.73726 11.0195 2.74023C9.97061 1.75005 8.55624 1.14282 6.99992 1.14282C4.96635 1.14282 3.17508 2.17939 2.125 3.75278H4.19951V4.32051H4.19957Z" fill="#727272"/>
<path d="M1.14307 6.99996C1.14307 9.24235 2.40342 11.1901 4.25417 12.1743L1.611 4.70264C1.30991 5.40803 1.14307 6.1845 1.14307 6.99996Z" fill="#727272"/>
<path d="M12.0973 4.11401C12.1811 4.60731 12.1557 5.16175 12.0271 5.71834H12.0504L11.9619 5.9714C11.9094 6.15412 11.8433 6.34104 11.7683 6.52471L9.75293 12.1707C11.5998 11.1853 12.8569 9.23968 12.8569 7.00014C12.8569 5.95073 12.5807 4.96591 12.0973 4.11401Z" fill="#727272"/>
<path d="M5.19336 12.5726C5.76237 12.757 6.36931 12.8569 6.99974 12.8569C7.60106 12.8569 8.18114 12.7662 8.72723 12.5978L7.01397 7.75488L5.19336 12.5726Z" fill="#727272"/>
<path d="M11.9497 2.05024C10.6276 0.728123 8.86973 0 6.99997 0C5.1302 0 3.37236 0.728123 2.05024 2.05024C0.728123 3.37236 0 5.1302 0 7C0 8.86977 0.728123 10.6276 2.05024 11.9497C3.37236 13.2718 5.13023 14 7 14C8.86977 14 10.6276 13.2718 11.9498 11.9497C13.2719 10.6276 14 8.86973 14 7C14 5.1302 13.2718 3.37236 11.9497 2.05024ZM6.99997 13.5062C3.41245 13.5062 0.493797 10.5875 0.493797 7C0.493797 3.41248 3.41245 0.493797 6.99997 0.493797C10.5875 0.493797 13.5061 3.41248 13.5061 7C13.5061 10.5875 10.5875 13.5062 6.99997 13.5062Z" fill="#727272"/>
</svg>
