<svg width="338" height="30" viewBox="0 0 338 30" fill="none" xmlns="http://www.w3.org/2000/svg">
<mask id="mask0" mask-type="alpha" maskUnits="userSpaceOnUse" x="0" y="0" width="338" height="30">
<rect width="338" height="30" fill="#0B1317"/>
</mask>
<g mask="url(#mask0)">
<rect x="-1" width="340" height="30" fill="#0B1317"/>
<path d="M102.5 19.02H105.62V33H102.5L95.84 24.24V33H92.72V19.02H95.64L102.5 28.02V19.02ZM119.768 25.94C119.768 24.6867 119.368 23.62 118.568 22.74C117.768 21.86 116.781 21.42 115.608 21.42C114.448 21.42 113.468 21.86 112.668 22.74C111.868 23.62 111.468 24.6867 111.468 25.94C111.468 27.18 111.868 28.24 112.668 29.12C113.468 29.9867 114.448 30.42 115.608 30.42C116.781 30.42 117.768 29.9867 118.568 29.12C119.368 28.24 119.768 27.18 119.768 25.94ZM120.828 31.08C119.414 32.4533 117.674 33.14 115.608 33.14C113.541 33.14 111.801 32.4533 110.388 31.08C108.974 29.6933 108.268 27.9733 108.268 25.92C108.268 23.8667 108.974 22.1533 110.388 20.78C111.801 19.3933 113.541 18.7 115.608 18.7C117.674 18.7 119.414 19.3933 120.828 20.78C122.241 22.1533 122.948 23.8667 122.948 25.92C122.948 27.9733 122.241 29.6933 120.828 31.08ZM130.439 27.92L133.999 19.02H137.379L131.759 33H129.119L123.499 19.02H126.879L130.439 27.92ZM149.436 25.94C149.436 24.6867 149.036 23.62 148.236 22.74C147.436 21.86 146.449 21.42 145.276 21.42C144.116 21.42 143.136 21.86 142.336 22.74C141.536 23.62 141.136 24.6867 141.136 25.94C141.136 27.18 141.536 28.24 142.336 29.12C143.136 29.9867 144.116 30.42 145.276 30.42C146.449 30.42 147.436 29.9867 148.236 29.12C149.036 28.24 149.436 27.18 149.436 25.94ZM150.496 31.08C149.082 32.4533 147.342 33.14 145.276 33.14C143.209 33.14 141.469 32.4533 140.056 31.08C138.642 29.6933 137.936 27.9733 137.936 25.92C137.936 23.8667 138.642 22.1533 140.056 20.78C141.469 19.3933 143.209 18.7 145.276 18.7C147.342 18.7 149.082 19.3933 150.496 20.78C151.909 22.1533 152.616 23.8667 152.616 25.92C152.616 27.9733 151.909 29.6933 150.496 31.08Z" fill="#212324"/>
</g>
</svg>
