<svg width="28" height="28" viewBox="0 0 28 28" fill="#C48F56" xmlns="http://www.w3.org/2000/svg">
	<path d="M1.0941 15.0937L24.2574 15.0937L20.4203 18.9122C19.9922 19.3383 19.9905 20.0308 20.4167 20.459C20.8428 20.8872 21.5354 20.8888 21.9635 20.4627L27.6786 14.7752C27.6789 14.7749 27.6792 14.7745 27.6795 14.7742C28.1066 14.3481 28.108 13.6533 27.6797 13.2258C27.6793 13.2254 27.679 13.2251 27.6787 13.2247L21.9636 7.53724C21.5355 7.11122 20.843 7.1127 20.4168 7.54095C19.9907 7.9691 19.9923 8.66161 20.4204 9.08773L24.2574 12.9062L1.0941 12.9062C0.490021 12.9062 0.000349045 13.3959 0.000349045 14C0.000349045 14.6041 0.490021 15.0937 1.0941 15.0937Z"/>
</svg>
