<svg width="18" height="18" viewBox="0 0 18 18" fill="none" xmlns="http://www.w3.org/2000/svg">
<g clip-path="url(#clip0)">
<path d="M16.3637 0H1.63638C0.733871 0 0 0.733871 0 1.63638V16.3637C0 17.2661 0.733871 18 1.63638 18H16.3637C17.2661 18 18 17.2662 18 16.3637V1.63638C18 0.733871 17.2661 0 16.3637 0Z" fill="#363433"/>
<path d="M1.63632 0.818115H16.3636C16.8146 0.818115 17.1818 1.18526 17.1818 1.63628V3.27266H0.818115V1.63632C0.818115 1.18526 1.18526 0.818115 1.63632 0.818115Z" fill="#C48F56"/>
<path d="M1.63632 0.818115H16.3636C16.8146 0.818115 17.1818 1.18526 17.1818 1.63628V3.27266H0.818115V1.63632C0.818115 1.18526 1.18526 0.818115 1.63632 0.818115Z" fill="url(#paint0_linear)"/>
<path d="M1.63632 0.818115H16.3636C16.8146 0.818115 17.1818 1.18526 17.1818 1.63628V3.27266H0.818115V1.63632C0.818115 1.18526 1.18526 0.818115 1.63632 0.818115Z" fill="url(#paint1_linear)"/>
<path d="M16.3636 17.1818H1.63628C1.18526 17.1818 0.818115 16.8147 0.818115 16.3637V4.09094H17.1817V16.3637C17.1817 16.8147 16.8146 17.1818 16.3636 17.1818Z" fill="url(#paint2_linear)"/>
<path d="M2.0457 2.45456C2.27164 2.45456 2.4548 2.2714 2.4548 2.04546C2.4548 1.81951 2.27164 1.63635 2.0457 1.63635C1.81976 1.63635 1.6366 1.81951 1.6366 2.04546C1.6366 2.2714 1.81976 2.45456 2.0457 2.45456Z" fill="#303C42"/>
<path d="M3.6823 2.45456C3.90824 2.45456 4.0914 2.2714 4.0914 2.04546C4.0914 1.81951 3.90824 1.63635 3.6823 1.63635C3.45636 1.63635 3.27319 1.81951 3.27319 2.04546C3.27319 2.2714 3.45636 2.45456 3.6823 2.45456Z" fill="#303C42"/>
<path d="M5.31853 2.45456C5.54447 2.45456 5.72763 2.2714 5.72763 2.04546C5.72763 1.81951 5.54447 1.63635 5.31853 1.63635C5.09259 1.63635 4.90942 1.81951 4.90942 2.04546C4.90942 2.2714 5.09259 2.45456 5.31853 2.45456Z" fill="#303C42"/>
<path d="M0.409424 7.36358H17.5913V6.54541H0.409424V7.36358Z" fill="#343231"/>
<path d="M5.31853 5.72729H12.6822C12.9083 5.72729 13.0913 5.54431 13.0913 5.31818C13.0913 5.09206 12.9083 4.90912 12.6822 4.90912H5.31853C5.0924 4.90912 4.90942 5.0921 4.90942 5.31822C4.90942 5.54435 5.0924 5.72729 5.31853 5.72729Z" fill="#A7AAAD"/>
<path d="M16.3637 0H1.63638C0.733871 0 0 0.733871 0 1.63638V16.3637C0 17.2661 0.733871 18 1.63638 18H16.3637C17.2661 18 18 17.2662 18 16.3637V1.63638C18 0.733871 17.2661 0 16.3637 0Z" fill="url(#paint3_linear)"/>
</g>
<defs>
<linearGradient id="paint0_linear" x1="1.99644" y1="-1.07094" x2="16.1338" y2="5.52115" gradientUnits="userSpaceOnUse">
<stop stop-color="white" stop-opacity="0.2"/>
<stop offset="1" stop-color="white" stop-opacity="0"/>
</linearGradient>
<linearGradient id="paint1_linear" x1="4.41581" y1="-2.29846" x2="13.5843" y2="6.87082" gradientUnits="userSpaceOnUse">
<stop stop-color="white" stop-opacity="0.2"/>
<stop offset="1" stop-color="white" stop-opacity="0"/>
</linearGradient>
<linearGradient id="paint2_linear" x1="13.9998" y1="17.0001" x2="13.9998" y2="2.50012" gradientUnits="userSpaceOnUse">
<stop stop-color="#646A70"/>
<stop offset="1" stop-color="#646A70" stop-opacity="0"/>
</linearGradient>
<linearGradient id="paint3_linear" x1="-1.35183" y1="4.17341" x2="19.3519" y2="13.8282" gradientUnits="userSpaceOnUse">
<stop stop-color="white" stop-opacity="0.2"/>
<stop offset="1" stop-color="white" stop-opacity="0"/>
</linearGradient>
<clipPath id="clip0">
<rect width="18" height="18" fill="white"/>
</clipPath>
</defs>
</svg>
